<svg width="219" height="236" viewBox="0 0 219 236" fill="none" xmlns="http://www.w3.org/2000/svg">
<g clip-path="url(#clip0_43_4)">
<mask id="mask0_43_4" style="mask-type:luminance" maskUnits="userSpaceOnUse" x="0" y="0" width="219" height="236">
<path d="M219 0H0V236H219V0Z" fill="white"/>
</mask>
<g mask="url(#mask0_43_4)">
<path fill-rule="evenodd" clip-rule="evenodd" d="M109.724 210.333C79.9911 210.71 46.8503 204.367 30.8069 179.36C15.2625 155.13 28.6128 124.981 37.3811 97.5719C45.67 71.6608 53.7452 43.7016 78.0987 31.5258C104.216 18.468 135.905 21.1815 161.284 35.6252C186.263 49.8409 202.298 75.8042 205.945 104.285C209.411 131.361 197.796 157.252 179.445 177.477C161.29 197.486 136.759 209.991 109.724 210.333Z" fill="#FEF0AE"/>
<mask id="mask1_43_4" style="mask-type:luminance" maskUnits="userSpaceOnUse" x="19" y="5" width="201" height="231">
<path d="M219.328 5.57224H19.6707V236H219.328V5.57224Z" fill="white"/>
</mask>
<g mask="url(#mask1_43_4)">
<path d="M141.851 153.73C156.036 152.109 179.304 156.527 159.385 184.513C139.614 212.293 135.786 229.76 146.401 226.323C146.478 226.295 146.557 226.268 146.64 226.243C146.559 226.271 146.48 226.298 146.401 226.323C143.451 227.426 144.8 231.404 143.276 233.017C131.46 234.895 131.24 219.018 157.63 184.188C163.981 174.927 168.222 156.896 143.183 157.867L141.851 153.73Z" fill="#FFD500"/>
<path d="M140.265 148.465C156.292 144.805 173.777 143.366 155.963 176.532C138.331 209.357 157.034 206.901 168.924 201.446C169.036 201.388 169.158 201.331 169.291 201.276C169.169 201.333 169.047 201.39 168.924 201.446C165.996 202.958 169.542 205.36 168.1 207.299C154.846 210.923 133.446 209.818 153.883 176.412C159.501 165.469 170.171 147.844 141.533 152.244L140.265 148.465Z" fill="#005BBB"/>
<path d="M60.8053 65.0804C63.161 64.8481 64.7748 61.6595 64.4098 57.9584C64.0448 54.2572 61.8392 51.4451 59.4834 51.6773C57.1277 51.9095 55.5139 55.0982 55.8789 58.7993C56.2439 62.5005 58.4495 65.3126 60.8053 65.0804Z" fill="#0D070C"/>
<path d="M106.444 51.641C104.287 52.6175 101.295 50.6628 99.7603 47.275C98.2255 43.8873 98.7293 40.3493 100.886 39.3728C103.042 38.3963 106.034 40.351 107.569 43.7387C109.104 47.1265 108.6 50.6644 106.444 51.641Z" fill="#0D070C"/>
<path fill-rule="evenodd" clip-rule="evenodd" d="M76.0497 28.9557C67.8946 31.2461 53.0947 39.098 59.1372 52.1829C63.1877 60.9545 61.0702 64.9079 58.7812 69.1811C56.8016 72.8758 54.6942 76.8101 56.3358 84.3058C57.8265 91.1137 60.9272 95.3263 64.0221 99.5307C68.2745 105.308 72.5162 111.071 72.5539 123.533C72.6063 140.758 85.2703 186.356 91.5961 207.003L121.612 198.961L76.0497 28.9557ZM76.129 29.2514C84.3369 27.1581 101.081 26.5597 102.392 40.9123C103.266 50.4857 108.319 53.2551 113.605 56.152C118.224 58.6834 123.021 61.3125 125.361 68.6662C127.55 75.5459 125.998 80.6225 124.443 85.7116C122.433 92.2862 120.417 98.8811 126.455 109.41C135.024 124.354 146.86 170.174 151.707 191.216L121.691 199.257L76.129 29.2514Z" fill="white"/>
<path d="M76.7353 100.281C72.3774 103.987 64.6124 102.016 59.3918 95.8786C54.1711 89.7415 53.4717 81.7623 57.8296 78.0567C62.1875 74.3511 69.9525 76.3222 75.1732 82.4594C80.3938 88.5965 81.0932 96.5756 76.7353 100.281Z" fill="url(#paint0_radial_43_4)"/>
<path d="M111.284 90.8533C105.836 89.1096 103.41 81.4757 105.867 73.8027C108.323 66.1296 114.732 61.3229 120.18 63.0666C125.629 64.8103 128.054 72.4442 125.598 80.1172C123.141 87.7903 116.733 92.597 111.284 90.8533Z" fill="url(#paint1_radial_43_4)"/>
<path d="M142.843 156.295C123.654 171.503 94.2788 175.74 82.1879 173.928L84.2396 181.016C112.055 186.952 136.043 171.568 144.869 163.324L142.843 156.295Z" fill="#005BBB"/>
<path d="M144.869 163.086C122.192 182.349 96.2826 182.586 84.1566 180.915L85.8821 186.438C113.812 192.05 138.234 179.295 146.895 170.95L144.869 163.086Z" fill="#FFD500"/>
<path opacity="0.5" d="M102.363 46.3964C103.411 46.5632 104.473 45.3638 104.735 43.7173C104.998 42.0708 104.361 40.6008 103.313 40.4339C102.265 40.267 101.203 41.4665 100.94 43.113C100.678 44.7594 101.315 46.2295 102.363 46.3964Z" fill="white"/>
<path opacity="0.5" d="M58.7478 58.787C59.7958 58.9539 60.858 57.7545 61.1203 56.108C61.3826 54.4615 60.7457 52.9915 59.6977 52.8246C58.6497 52.6577 57.5875 53.8571 57.3252 55.5036C57.0629 57.1501 57.6998 58.6201 58.7478 58.787Z" fill="white"/>
<path d="M116.343 185.877C63.8136 196.101 75.0764 267.279 87.2738 301.591C148.71 321.683 263.358 342.141 230.465 263.23C197.572 184.32 154.338 175.122 136.832 180.388L116.343 185.877Z" fill="white"/>
<path d="M68.4142 67.2852C61.9527 46.9604 80.7762 38.2356 80.7608 38.5123C102.039 38.5123 105.007 56.7282 105.007 59.5418C105.007 67.2852 118.758 70.4463 117.179 78.9387C115.599 87.4311 119.85 103.099 119.825 114.831C119.809 122.02 117.728 125.201 115.959 126.343C116.478 126.209 116.269 126.293 115.758 126.465C115.293 126.729 114.857 126.853 114.495 126.874C114.965 126.725 115.426 126.577 115.758 126.465C115.825 126.427 115.892 126.387 115.959 126.343C115.278 126.519 113.338 127.072 109.172 128.3C97.4222 131.765 92.5229 116.441 77.566 101.434C62.6094 86.4275 76.4906 92.691 68.4142 67.2852Z" fill="#FF6B0A"/>
<path d="M107.151 120.761C97.4664 122.468 88.7818 102.285 85.6503 91.98C91.123 89.1408 103.25 83.9695 107.977 85.9987C113.887 88.5351 119.258 118.627 107.151 120.761Z" fill="#1F0C02"/>
<path d="M108.36 117.585C114.763 114.983 108.788 101.045 105 94.4016L92.1357 97.8479C94.8765 105.511 101.958 120.188 108.36 117.585Z" fill="#724B3B"/>
<path d="M106.237 112.593C107.342 111.249 101.5 97.4388 98.4402 90.7017L95.6948 91.7607C98.7483 99.2649 105.131 113.937 106.237 112.593Z" fill="#6B3B28"/>
<path d="M79.6665 85.0269C82.4092 69.7154 76.6624 63.1742 73.4463 61.8176C79.8645 46.0282 93.371 50.6174 99.3221 54.8854C95.3469 70.2103 98.113 58.0612 108.5 77.3028C116.809 92.6959 107.453 101.191 101.737 103.515C93.2376 103.732 76.9241 100.339 79.6665 85.0269Z" fill="#ED5E00"/>
<path d="M111.146 83.9475C90.4902 67.4255 83.3478 85.4792 82.3584 96.5712C84.848 100.341 92.2849 106.999 102.118 103.478C111.95 99.9568 112.234 88.9904 111.146 83.9475Z" fill="#FF8E3D"/>
<path d="M93.5533 85.8824C92.9179 84.1747 91.4561 81.0929 90.6935 82.4273C89.9306 83.7617 92.2822 85.2865 93.5533 85.8824Z" fill="#FD7411"/>
<path d="M96.8881 84.9951C96.3065 83.2684 95.5014 79.9539 96.9344 80.5104C98.367 81.067 97.5006 83.7322 96.8881 84.9951Z" fill="#FD7411"/>
<path d="M83.9013 13.4441L89.2638 28.0985C83.1623 38.2018 67.1783 39.3772 59.949 38.702L54.7057 23.6903L83.9013 13.4441Z" fill="#373500"/>
<path d="M89.2638 28.0984C89.5418 36.7164 83.6868 50.2113 59.9489 38.583L89.2638 28.0984Z" fill="#373500"/>
<path d="M70.2101 21.0852C78.3011 18.2949 84.4701 14.9025 83.989 13.5081C83.508 12.1137 76.5589 13.2453 68.468 16.0356C60.377 18.8259 54.208 22.2183 54.6891 23.6127C55.1701 25.0071 62.1191 23.8755 70.2101 21.0852Z" fill="#373500"/>
<path d="M83.9013 13.4441L89.2638 28.0985C83.1623 38.2018 67.1783 39.3772 59.949 38.702L54.7057 23.6903C54.7057 23.6903 57.2272 23.3742 58.7572 22.8563C60.5906 22.2357 63.1664 20.5926 63.1664 20.5926L75.7979 30.8388V15.5886C75.7979 15.5886 78.5463 16.0433 80.2071 15.5886C81.8162 15.1481 83.9013 13.4441 83.9013 13.4441Z" fill="#4B4800"/>
<path d="M67.0687 20.1246C67.1602 20.1414 67.2356 20.1508 67.3064 20.1726C67.8959 20.3352 68.3293 20.6447 68.6588 21.2182C68.7981 21.4611 68.9142 21.7256 69.0384 21.9759C69.1476 22.1978 69.2554 22.4154 69.3686 22.6356C69.3984 22.6923 69.4004 22.7218 69.343 22.7599C69.2184 22.8354 69.1338 22.9577 69.1332 23.1259C69.1302 23.2749 69.1941 23.3865 69.301 23.457C69.4095 23.5317 69.5282 23.5252 69.6439 23.4743C69.701 23.4468 69.7292 23.4025 69.7374 23.3274C69.8072 22.7542 69.7652 22.1943 69.6269 21.6403C69.5108 21.1825 69.3187 20.7614 69.1437 20.3374C69.0446 20.0951 68.9519 19.8449 68.8453 19.6063C68.7801 19.4547 68.7296 19.3061 68.7076 19.1386C68.686 18.971 68.6955 18.8035 68.744 18.6324C68.8863 18.7011 69.002 18.8079 69.0846 18.946C69.1604 19.0774 69.224 19.2247 69.2807 19.3652C69.342 19.5187 69.3846 19.6814 69.4367 19.8343C69.5741 20.241 69.7079 20.6496 69.8567 21.0508C70.1088 21.7177 70.4891 22.2716 71.0025 22.7001C71.0694 22.7594 71.1307 22.7552 71.1996 22.7117C71.3756 22.6061 71.4533 22.3803 71.3815 22.1861C71.314 22.0049 71.1127 21.909 70.9307 21.9868C70.8645 22.0138 70.8511 21.9898 70.8363 21.9257C70.7537 21.5942 70.6655 21.2602 70.579 20.9305C70.4842 20.554 70.3704 20.1867 70.3747 19.7877C70.3809 19.2605 70.5216 18.8415 70.7852 18.4035C70.8052 18.3734 70.8255 18.3433 70.854 18.299C70.8684 18.3378 70.878 18.3637 70.8875 18.3896C71.5071 20.0593 72.1011 21.6599 72.7208 23.3296C72.7558 23.4246 72.7558 23.4246 72.6758 23.4632C72.3755 23.6085 72.0713 23.7556 71.771 23.9009C71.7179 23.9266 71.7015 23.9549 71.7123 24.0209C71.7946 24.5205 71.73 24.9995 71.5051 25.4442C71.4589 25.5377 71.4271 25.6448 71.3877 25.7451C71.1337 25.6035 70.8363 25.5641 70.594 25.3708C70.3963 25.2121 70.2164 25.0294 70.0816 24.7994C70.0495 24.7488 70.0203 24.7426 69.9747 24.7647C69.6666 24.9136 69.3623 25.0607 69.0545 25.2097C69.001 25.2354 68.9735 25.2335 68.9479 25.1645C68.325 23.4862 67.7264 21.8726 67.1035 20.1943C67.093 20.1893 67.0864 20.1721 67.0687 20.1246ZM67.6884 20.7307C67.6824 20.7387 67.671 20.7442 67.6651 20.7522C67.6762 20.7825 67.6874 20.8126 67.6985 20.8428C67.9978 21.6497 68.2732 22.3917 68.5729 23.1985C68.6224 23.3323 68.6224 23.3323 68.744 23.2734C68.7896 23.2513 68.8076 23.2274 68.7997 23.1701C68.7863 22.9884 68.8329 22.8234 68.9292 22.6851C68.9699 22.6248 68.963 22.5823 68.9328 22.5256C68.7883 22.2444 68.6381 21.9608 68.505 21.6742C68.3631 21.3764 68.2159 21.1728 67.9778 20.9673C67.8831 20.8808 67.7854 20.811 67.6884 20.7307ZM70.8265 19.2283C70.8189 19.2319 70.8134 19.2294 70.8058 19.2331C70.796 19.2787 70.7858 19.3242 70.7796 19.3679C70.7275 19.6985 70.6809 19.9602 70.7566 20.2849C70.855 20.6953 70.9612 21.1019 71.0635 21.5105C71.075 21.5659 71.0992 21.5949 71.156 21.603C71.312 21.6243 71.4464 21.6967 71.5549 21.8324C71.6051 21.8947 71.6533 21.8918 71.7441 21.8224C71.8002 21.78 71.7582 21.7393 71.7438 21.7004C71.4395 20.8807 71.1596 20.1257 70.8537 19.3016C70.8478 19.2739 70.8383 19.248 70.8265 19.2283ZM69.722 23.8539C69.7013 23.8587 69.6767 23.8655 69.6469 23.8697C69.3849 23.9252 69.1492 23.8816 68.9689 23.6379C68.943 23.6046 68.9217 23.5947 68.8889 23.6155C68.8624 23.6284 68.8358 23.6413 68.8089 23.6541C68.7709 23.6725 68.7624 23.6972 68.7781 23.7403C68.8984 24.0639 69.0201 24.3918 69.144 24.7135C69.1502 24.7308 69.1951 24.7549 69.2102 24.7475C69.4174 24.6526 69.6262 24.5514 69.8302 24.4478C69.8452 24.4404 69.8646 24.3955 69.862 24.3764C69.8164 24.2051 69.7708 24.0338 69.722 23.8539ZM71.3494 23.0667C71.4287 23.2319 71.5084 23.3867 71.5861 23.5476C71.6074 23.5932 71.6379 23.5785 71.6684 23.5638C71.8621 23.47 72.0506 23.3737 72.2464 23.2842C72.307 23.2548 72.3165 23.2197 72.2887 23.1569C72.1775 22.8696 72.0743 22.5787 71.9654 22.2853C71.9156 22.1516 71.9156 22.1516 71.7979 22.2086C71.7638 22.2252 71.7333 22.2399 71.7395 22.2929C71.7654 22.5805 71.6533 22.7977 71.4674 22.974C71.4264 23.009 71.3825 23.0354 71.3494 23.0667ZM70.0918 22.2399C70.1085 22.6236 70.1223 22.9987 70.0708 23.3798C70.2223 23.4134 70.3645 23.4464 70.5091 23.4732C70.5291 23.4788 70.5639 23.4517 70.578 23.4296C70.6514 23.3128 70.7137 23.191 70.7868 23.0741C70.8094 23.0378 70.8091 23.0126 70.7757 22.9829C70.5373 22.7878 70.3364 22.549 70.1439 22.2961C70.1246 22.28 70.1072 22.2578 70.0918 22.2399ZM70.3809 24.5783C70.4488 24.81 70.8245 25.1576 70.9707 25.153C70.973 25.1468 70.9753 25.1407 70.9753 25.1407C70.892 24.9163 70.8127 24.6901 70.7271 24.4719C70.7206 24.4547 70.6845 24.4417 70.6678 24.4447C70.5694 24.482 70.476 24.5324 70.3809 24.5783ZM71.2933 25.0071C71.4169 24.8202 71.4356 24.2666 71.3451 24.1069C71.2615 24.1473 71.1701 24.1915 71.0865 24.2319C71.037 24.2558 71.0297 24.2848 71.0491 24.3365C71.1163 24.5177 71.1835 24.699 71.2507 24.8802C71.2615 24.9208 71.276 24.9597 71.2933 25.0071ZM70.3875 24.1731C70.437 24.1492 70.4917 24.1278 70.538 24.0952C70.5531 24.0879 70.5708 24.0387 70.5622 24.0276C70.4688 23.8487 70.3016 23.7363 70.1259 23.7704C70.0885 23.7783 70.0728 23.7961 70.0796 23.8387C70.1075 23.9625 70.1393 24.0845 70.1688 24.2126C70.1813 24.2577 70.2105 24.2639 70.2446 24.2473C70.2885 24.2209 70.338 24.197 70.3875 24.1731ZM71.0871 23.8347C71.1327 23.8127 71.1747 23.7924 71.2202 23.7703C71.2674 23.7526 71.2861 23.7182 71.2576 23.6657C71.2061 23.5634 71.1546 23.4611 71.0996 23.3606C71.0727 23.3124 71.0451 23.3105 71.0058 23.3499C70.8789 23.4672 70.8153 23.7066 70.874 23.8767C70.8806 23.894 70.9183 23.9113 70.935 23.9083C70.9897 23.8868 71.0376 23.8586 71.0871 23.8347Z" fill="#FFD500"/>
<path d="M142.448 154.383C156.633 152.762 179.304 156.527 159.385 184.513C139.614 212.293 135.786 229.76 146.401 226.323C146.478 226.295 146.557 226.268 146.64 226.243C146.559 226.271 146.48 226.298 146.401 226.323C143.45 227.426 144.8 231.404 143.276 233.017C131.46 234.895 131.24 219.018 157.63 184.188C163.981 174.927 168.471 156.854 143.432 157.825L142.448 154.383Z" fill="#FFD500"/>
<path d="M140.809 149.139C156.837 145.479 173.777 143.366 155.963 176.532C138.331 209.357 157.034 206.901 168.923 201.446C169.036 201.388 169.158 201.331 169.291 201.276C169.169 201.333 169.047 201.39 168.923 201.446C165.996 202.958 169.542 205.36 168.1 207.299C154.846 210.923 133.446 209.818 153.883 176.412C159.501 165.469 169.168 147.336 141.957 151.597L140.809 149.139Z" fill="#005BBB"/>
</g>
</g>
</g>
<defs>
<radialGradient id="paint0_radial_43_4" cx="0" cy="0" r="1" gradientUnits="userSpaceOnUse" gradientTransform="translate(67.2825 89.169) rotate(49.6133) scale(14.589 10.3577)">
<stop stop-color="#FFBBBB"/>
<stop offset="1" stop-color="#FFBBBB" stop-opacity="0"/>
</radialGradient>
<radialGradient id="paint1_radial_43_4" cx="0" cy="0" r="1" gradientUnits="userSpaceOnUse" gradientTransform="translate(115.732 76.96) rotate(107.753) scale(14.588 10.3584)">
<stop stop-color="#FFBBBB"/>
<stop offset="1" stop-color="#FFBBBB" stop-opacity="0"/>
</radialGradient>
<clipPath id="clip0_43_4">
<rect width="219" height="236" fill="white"/>
</clipPath>
</defs>
</svg>
