<svg width="282" height="213" viewBox="0 0 282 213" fill="none" xmlns="http://www.w3.org/2000/svg">
<path fill-rule="evenodd" clip-rule="evenodd" d="M239.067 137.58C229.878 169.186 212.46 202.236 180.762 211.169C150.05 219.824 122.379 195.974 96.1357 177.859C71.327 160.734 44.2776 143.176 39.2186 113.465C33.7931 81.6009 46.8921 48.9196 70.397 26.6979C93.5318 4.82719 126.241 -3.789 157.625 1.52516C187.461 6.57707 211.175 27.2174 226.707 53.1655C242.073 78.8361 247.424 108.842 239.067 137.58Z" fill="url(#paint0_linear_142_36)"/>
<path d="M245.012 117.558C106.662 101.63 114.718 143.031 136.039 165.723C138.443 179.204 171.105 175.079 187.135 171.331C190.033 166.439 200.393 156.239 218.649 154.573C236.905 152.908 234.401 148.279 230.866 146.173C258.223 140.534 246.716 137.136 237.543 136.143C316.885 133.329 271.011 120.146 245.012 117.558Z" fill="#D9D9D9"/>
<path d="M248.705 119.005C107.027 104.37 116.597 146.736 139.092 169.748C141.984 183.545 175.174 178.912 191.408 174.87C194.205 169.818 204.442 159.229 223.015 157.295C241.586 155.362 238.88 150.646 235.206 148.53C262.934 142.409 251.082 139.066 241.69 138.159C311.169 128.439 275.316 121.34 248.705 119.005Z" fill="url(#paint1_linear_142_36)"/>
<path d="M121.388 184.823L97.9424 193.567" stroke="#FF6B0A" stroke-width="3" stroke-linecap="round"/>
<path d="M87 199L97 193" stroke="#FF6B0A" stroke-width="3" stroke-linecap="round"/>
<path d="M89 193L97 192" stroke="#FF6B0A" stroke-width="3" stroke-linecap="round"/>
<path d="M91 203L98 193" stroke="#FF6B0A" stroke-width="3" stroke-linecap="round"/>
<path d="M38.5245 95.4277C177.914 104.098 162.537 143.855 137.425 162.648C132.634 175.633 101.141 165.741 85.9947 159.173C84.0116 153.793 75.6176 141.812 57.9011 136.92C40.1843 132.028 43.4858 127.868 47.3511 126.4C21.3651 115.942 33.3307 114.601 42.5618 115.238C-35.2325 98.3808 12.4028 93.3954 38.5245 95.4277Z" fill="#D9D9D9"/>
<path d="M34.2734 97.9627C176.424 108.633 159.509 148.308 133.282 166.812C127.994 179.773 96.1176 169.402 80.8408 162.597C78.9788 157.171 70.7655 145.03 52.8125 139.871C34.8595 134.712 38.3588 130.585 42.3525 129.165C16.1196 118.305 28.3856 117.128 37.7977 117.897C-28.9265 96.1681 7.6464 95.5536 34.2734 97.9627Z" fill="url(#paint2_linear_142_36)"/>
<path d="M183.949 147.247C177.943 175.513 137.546 218.334 24 163.503C78.4582 140.044 186.689 103.95 183.949 147.247Z" fill="url(#paint3_linear_142_36)"/>
<path d="M137.875 74.0313C132.424 60.981 140.146 55.9066 144.689 55C148.097 57.2656 160.227 61.7968 154.23 61.7968C148.233 61.7968 149.914 69.9535 151.504 74.0313C180.944 113.725 163.771 135.882 154.912 142C144.689 137.922 127.653 128.542 141.283 123.649C158.319 117.531 144.689 90.3438 137.875 74.0313Z" fill="white"/>
<path d="M95.9971 184.025C97.4417 189.16 114.744 188.785 134.642 183.187C154.541 177.589 169.501 168.888 168.056 163.753C166.612 158.618 149.31 158.994 129.411 164.592C109.513 170.19 94.5526 178.891 95.9971 184.025Z" fill="url(#paint4_radial_142_36)"/>
<path d="M107.607 183.036L83.1277 188.223" stroke="#FF6B0A" stroke-width="3" stroke-linecap="round"/>
<path d="M72 193L83 188" stroke="#FF6B0A" stroke-width="3" stroke-linecap="round"/>
<path d="M75 187L83 188" stroke="#FF6B0A" stroke-width="3" stroke-linecap="round"/>
<path d="M75 197L84 189" stroke="#FF6B0A" stroke-width="3" stroke-linecap="round"/>
<path d="M175.407 81.104C156.245 91.7821 147.351 85.5534 145.299 81.104C131.308 72.6966 134.553 44 158.506 44C182.459 44 199.361 67.7555 175.407 81.104Z" fill="white"/>
<path d="M161.593 73.1397L164.724 71.1638C170.346 67.6138 177.123 66.2647 183.712 67.3836C184.084 67.4475 184.383 67.72 184.474 68.0797L190.943 93.7629C191.361 95.4232 189.401 96.6652 188.029 95.6093L161.495 75.2038C160.795 74.666 160.846 73.6119 161.593 73.1397Z" fill="#DF5B04"/>
<path d="M161.607 73.0472L164.063 71.4514C169.855 67.6904 176.754 66.2432 183.488 67.3758C183.751 67.4207 183.987 67.5721 184.144 67.7968L199.653 90.0768C200.72 91.6092 199.133 93.6186 197.49 92.818L161.742 75.4032C160.817 74.952 160.74 73.6093 161.607 73.0472Z" fill="#FF6B0A"/>
<path d="M183.5 64C182.119 64 181 62.8807 181 61.5C181 60.1193 182.119 59 183.5 59C184.881 59 186 60.1193 186 61.5C186 62.8807 184.881 64 183.5 64Z" fill="#797979"/>
<path d="M158.5 66C157.119 66 156 64.8807 156 63.5C156 62.1193 157.119 61 158.5 61C159.881 61 161 62.1193 161 63.5C161 64.8807 159.881 66 158.5 66Z" fill="#797979"/>
<path d="M175.545 30.8612L174.99 28L140 34.4851L143.01 50L144.24 49.7713L173.421 46.1743L178 43.5149L175.908 32.7301L176.08 32.7214L176.054 30.8577L175.545 30.8612Z" fill="#0C0632"/>
<path d="M158.788 35.7314C148.82 37.6218 140.586 38.351 140.398 37.3603C140.211 36.3696 148.139 34.034 158.108 32.1437C168.076 30.2534 176.31 29.5241 176.497 30.5148C176.685 31.5055 168.757 33.8411 158.788 35.7314Z" fill="#0C0632"/>
<path d="M178.686 43C190.695 43.7309 202.094 60.1458 152 51.482L178.686 43Z" fill="#0C0632"/>
<path d="M179 43.7564C177.115 49.2608 146.554 54.6543 142.423 50.563L140 37.8368C145.39 38.5518 154.978 33.7775 163.269 35.1729L173.858 44.419L176.52 31L179 43.7564Z" fill="#494600"/>
<path d="M158.263 32.9223C148.574 34.7595 140.568 35.4457 140.38 34.455C140.193 33.4643 147.894 31.1718 157.582 29.3345C167.271 27.4973 175.277 26.8111 175.465 27.8018C175.653 28.7925 167.951 31.085 158.263 32.9223Z" fill="#0C0632"/>
<path d="M158.527 35.7811C148.703 37.6442 140.586 38.3513 140.398 37.3606C140.21 36.3699 148.022 34.0565 157.847 32.1934C167.672 30.3303 175.788 29.6231 175.976 30.6139C176.164 31.6046 168.352 33.918 158.527 35.7811Z" fill="#0C0632"/>
<path d="M172.524 33C172.472 33.0672 172.427 33.1194 172.391 33.1761C172.084 33.6387 171.961 34.0899 172.051 34.6331C172.089 34.8632 172.154 35.0914 172.206 35.3161C172.253 35.5152 172.299 35.7107 172.342 35.9106C172.352 35.9628 172.367 35.9814 172.426 35.9682C172.55 35.9354 172.674 35.9549 172.764 36.054C172.847 36.1398 172.865 36.2459 172.831 36.3539C172.799 36.4654 172.716 36.5352 172.611 36.5768C172.557 36.5963 172.514 36.5874 172.469 36.5476C172.112 36.253 171.837 35.8965 171.63 35.4842C171.46 35.1418 171.361 34.7738 171.249 34.4146C171.184 34.2103 171.111 34.005 171.054 33.798C171.015 33.6679 170.968 33.5485 170.893 33.4362C170.816 33.3238 170.719 33.2309 170.594 33.1601C170.536 33.2893 170.516 33.4238 170.535 33.5565C170.556 33.6812 170.593 33.8077 170.631 33.9254C170.673 34.0546 170.733 34.1766 170.78 34.2996C170.909 34.6252 171.04 34.949 171.157 35.279C171.349 35.8284 171.393 36.3919 171.282 36.9634C171.268 37.0404 171.225 37.0758 171.156 37.0926C170.981 37.1395 170.806 37.0546 170.749 36.8953C170.696 36.7467 170.779 36.5653 170.944 36.4981C171.003 36.4724 170.998 36.4503 170.974 36.4034C170.85 36.1566 170.728 35.9045 170.608 35.6559C170.468 35.3745 170.345 35.0879 170.126 34.8543C169.837 34.5473 169.517 34.3872 169.103 34.2925C169.073 34.2872 169.043 34.2819 169 34.274C169.011 34.3058 169.018 34.327 169.026 34.3483C169.515 35.7178 169.982 37.0316 170.47 38.402C170.498 38.4798 170.498 38.4798 170.572 38.4533C170.852 38.3524 171.136 38.2507 171.416 38.1498C171.466 38.1321 171.492 38.1383 171.52 38.1843C171.736 38.5302 172.037 38.7726 172.429 38.8956C172.511 38.9221 172.59 38.9655 172.67 39C172.764 38.7585 172.942 38.5506 173 38.2861C173.047 38.0693 173.069 37.8499 173.034 37.6305C173.028 37.581 173.045 37.5588 173.087 37.5438C173.374 37.4403 173.658 37.3385 173.945 37.235C173.994 37.2173 174.012 37.1988 173.992 37.1421C173.501 35.7647 173.029 34.4403 172.539 33.0628C172.543 33.0531 172.538 33.0389 172.524 33ZM172.437 33.7431C172.446 33.744 172.456 33.7405 172.464 33.7414C172.473 33.7661 172.482 33.7909 172.491 33.8157C172.726 34.4774 172.944 35.087 173.18 35.7487C173.218 35.8585 173.218 35.8585 173.106 35.8991C173.063 35.9151 173.038 35.9115 173.012 35.8726C172.923 35.7576 172.802 35.6886 172.663 35.6674C172.603 35.6567 172.585 35.6275 172.574 35.5754C172.519 35.3197 172.466 35.0587 172.4 34.8065C172.334 34.5429 172.323 34.3315 172.371 34.0625C172.388 33.9528 172.416 33.8502 172.437 33.7431ZM169.521 34.8048C169.528 34.8021 169.531 34.7977 169.538 34.795C169.568 34.8154 169.6 34.8366 169.628 34.8587C169.842 35.0206 170.015 35.1463 170.139 35.3851C170.295 35.6886 170.445 35.9947 170.597 36.299C170.619 36.3388 170.619 36.3716 170.585 36.4114C170.492 36.5211 170.441 36.6467 170.441 36.7945C170.442 36.8626 170.408 36.8909 170.309 36.9059C170.249 36.9157 170.255 36.8661 170.243 36.8343C170.004 36.161 169.783 35.5417 169.542 34.8649C169.531 34.8455 169.524 34.8242 169.521 34.8048ZM172.764 36.8493C172.78 36.8396 172.8 36.8281 172.822 36.8121C173.028 36.6821 173.163 36.5096 173.151 36.2539C173.151 36.2185 173.16 36.1991 173.194 36.1911C173.218 36.1823 173.243 36.1734 173.268 36.1646C173.303 36.1513 173.322 36.161 173.335 36.1964C173.429 36.4618 173.525 36.7308 173.616 36.9979C173.621 37.0121 173.605 37.0537 173.591 37.059C173.4 37.1315 173.205 37.2014 173.012 37.2669C172.998 37.2722 172.961 37.2572 172.953 37.2448C172.891 37.1156 172.829 36.9855 172.764 36.8493ZM171.247 37.3952C171.283 37.542 171.314 37.6827 171.348 37.826C171.359 37.8667 171.331 37.8764 171.303 37.8871C171.121 37.9516 170.943 38.0118 170.764 38.0808C170.707 38.1012 170.682 38.0861 170.667 38.0321C170.586 37.7933 170.498 37.5571 170.411 37.3164C170.373 37.2067 170.373 37.2067 170.483 37.1678C170.514 37.1563 170.542 37.1457 170.567 37.1811C170.705 37.3669 170.898 37.4252 171.118 37.4137C171.165 37.4093 171.208 37.3978 171.247 37.3952ZM171.643 36.1265C171.839 36.3636 172.033 36.5927 172.273 36.7856C172.191 36.8997 172.113 37.0077 172.03 37.1129C172.02 37.1289 171.982 37.1351 171.961 37.1306C171.848 37.1068 171.741 37.074 171.628 37.0501C171.594 37.0431 171.58 37.028 171.587 36.9891C171.641 36.7263 171.646 36.4609 171.638 36.192C171.642 36.1707 171.642 36.1469 171.643 36.1265ZM172.714 37.6862C172.794 37.8649 172.73 38.3037 172.63 38.3913C172.625 38.3896 172.62 38.3869 172.62 38.3869C172.555 38.2029 172.485 38.0198 172.425 37.8384C172.419 37.8242 172.437 37.7942 172.45 37.7853C172.536 37.7464 172.625 37.7181 172.714 37.6862ZM172.335 38.5063C172.151 38.4718 171.839 38.1569 171.813 38.0065C171.891 37.9782 171.976 37.9481 172.054 37.9198C172.1 37.903 172.12 37.9163 172.135 37.9587C172.189 38.1073 172.242 38.256 172.294 38.4046C172.309 38.4347 172.321 38.4674 172.335 38.5063ZM172.491 37.4509C172.445 37.4677 172.396 37.4889 172.347 37.4987C172.333 37.504 172.295 37.4854 172.294 37.4739C172.26 37.3102 172.312 37.1395 172.448 37.051C172.477 37.0324 172.498 37.0333 172.516 37.0625C172.565 37.1528 172.609 37.2448 172.659 37.3385C172.675 37.373 172.659 37.3943 172.626 37.4058C172.583 37.4182 172.536 37.4341 172.491 37.4509ZM171.839 37.6862C171.796 37.7013 171.757 37.7154 171.715 37.7305C171.673 37.749 171.642 37.7402 171.633 37.6915C171.612 37.5995 171.591 37.5075 171.574 37.4137C171.566 37.3686 171.583 37.35 171.631 37.3492C171.779 37.3394 171.951 37.4412 172.004 37.5783C172.009 37.5925 171.993 37.6261 171.98 37.6349C171.932 37.6561 171.884 37.6694 171.839 37.6862Z" fill="#FFD500"/>
<path d="M156.805 82.2896C152.967 85.5536 146.967 84.8037 143.405 80.6147C139.842 76.4257 140.065 70.3838 143.903 67.1197C147.74 63.8557 153.74 64.6056 157.303 68.7946C160.865 72.9836 160.642 79.0255 156.805 82.2896Z" fill="url(#paint5_radial_142_36)"/>
<defs>
<linearGradient id="paint0_linear_142_36" x1="239.945" y1="136.579" x2="44.5146" y2="64.9478" gradientUnits="userSpaceOnUse">
<stop stop-color="#FEF0AE"/>
<stop offset="1" stop-color="#FEF0AE"/>
</linearGradient>
<linearGradient id="paint1_linear_142_36" x1="196.048" y1="114.416" x2="202.886" y2="174.832" gradientUnits="userSpaceOnUse">
<stop stop-color="white"/>
<stop offset="1" stop-color="#F5F5F5"/>
</linearGradient>
<linearGradient id="paint2_linear_142_36" x1="86.9549" y1="102.759" x2="69.7728" y2="160.607" gradientUnits="userSpaceOnUse">
<stop stop-color="white"/>
<stop offset="1" stop-color="#F9F9F9"/>
</linearGradient>
<linearGradient id="paint3_linear_142_36" x1="137.49" y1="133.053" x2="69.854" y2="178.594" gradientUnits="userSpaceOnUse">
<stop stop-color="white"/>
<stop offset="1" stop-color="#F5F5F5"/>
</linearGradient>
<radialGradient id="paint4_radial_142_36" cx="0" cy="0" r="1" gradientUnits="userSpaceOnUse" gradientTransform="translate(132.027 173.889) rotate(164.287) scale(37.4283 9.65829)">
<stop stop-color="#E8E8E8"/>
<stop offset="1" stop-color="#EFEFEF" stop-opacity="0.5"/>
</radialGradient>
<radialGradient id="paint5_radial_142_36" cx="0" cy="0" r="1" gradientUnits="userSpaceOnUse" gradientTransform="translate(150.354 74.7047) rotate(49.619) scale(9.95716 9.1223)">
<stop stop-color="#FFBBBB"/>
<stop offset="1" stop-color="#FFBBBB" stop-opacity="0"/>
</radialGradient>
</defs>
</svg>
