<svg width="204" height="219" viewBox="0 0 204 219" fill="none" xmlns="http://www.w3.org/2000/svg">
<path fill-rule="evenodd" clip-rule="evenodd" d="M6.02288 43.8049C19.6843 15.9568 45.0071 3.54123 75.8897 0.37602C105.813 -2.69069 140.164 13.3892 161.594 34.4455C181.852 54.3506 204.122 75.0202 203.999 103.414C203.868 133.864 186.402 162.078 160.972 178.901C135.942 195.459 104.171 198.168 75.8897 188.161C49.0049 178.648 22.988 167.739 12.7746 141.145C2.67009 114.834 -6.39923 69.126 6.02288 43.8049Z" fill="url(#paint0_linear_143_37)"/>
<path d="M102.035 179.959L101.318 204.769" stroke="#FF6B0A" stroke-width="3" stroke-linecap="round"/>
<path d="M89 212L103 204" stroke="#FF6B0A" stroke-width="3" stroke-linecap="round"/>
<path d="M98 213L103 205" stroke="#FF6B0A" stroke-width="3" stroke-linecap="round"/>
<path d="M86 206L101 204" stroke="#FF6B0A" stroke-width="3" stroke-linecap="round"/>
<path d="M58.677 153.061C67.7403 187.293 104.494 233.495 179 144.444C135.087 124.981 49.5432 99.4557 58.677 153.061Z" fill="url(#paint1_linear_143_37)"/>
<path d="M91.6563 77.0625C98.4706 60.5623 88.8166 54.1456 83.1379 53C78.8791 55.8649 63.7159 61.5939 71.2127 61.5939C78.7087 61.5939 76.6071 71.9063 74.6194 77.0625C37.8206 127.251 59.2867 155.266 70.3606 163C83.1379 157.844 104.434 145.985 87.3975 139.797C66.1018 132.063 83.1379 97.688 91.6563 77.0625Z" fill="url(#paint2_linear_143_37)"/>
<path d="M128.156 186.518C128.114 191.121 117.284 194.754 103.966 194.634C90.6473 194.514 79.8844 190.685 79.926 186.082C79.9676 181.479 90.7979 177.845 104.116 177.965C117.434 178.086 128.197 181.915 128.156 186.518Z" fill="url(#paint3_radial_143_37)"/>
<path d="M116 188V208" stroke="#FF6B0A" stroke-width="3" stroke-linecap="round"/>
<path d="M102 216L116 208" stroke="#FF6B0A" stroke-width="3" stroke-linecap="round"/>
<path d="M110 217L116 209" stroke="#FF6B0A" stroke-width="3" stroke-linecap="round"/>
<path d="M99 210L114 208" stroke="#FF6B0A" stroke-width="3" stroke-linecap="round"/>
<path d="M116.559 96.4195C64.0408 113.405 74.9092 130.549 86.908 136.999C90.3684 142.62 101.245 135.076 106.251 130.602C106.343 127.905 108.077 121.529 114.28 117.599C120.482 113.671 118.695 112.034 117.025 111.706C125.714 104.409 120.946 104.894 117.475 106.048C145.288 90.9536 126.349 93.0452 116.559 96.4195Z" fill="#D9D9D9"/>
<path d="M118.33 96.8521C64.3739 114.936 75.9799 131.869 88.5273 138.075C92.2262 143.629 103.315 135.855 108.397 131.274C108.434 128.574 110.093 122.157 116.424 118.096C122.756 114.036 120.871 112.434 119.138 112.141C127.97 104.66 123.048 105.243 119.483 106.469C142.692 90.1872 128.385 93.2743 118.33 96.8521Z" fill="#FAFAFA"/>
<path d="M61.7377 74.0637C77.8335 83.0041 85.3056 77.7884 87.0289 74.0637C98.7819 67.0242 96.0553 43 75.9348 43C55.8143 43 41.6172 62.888 61.7377 74.0637Z" fill="white"/>
<path d="M73.5037 67.1293L70.8841 65.4786C66.1811 62.5125 60.5109 61.3859 54.9982 62.3204C54.6867 62.3732 54.4367 62.6015 54.3609 62.9023L49.0527 83.9501C48.6688 85.4714 50.466 86.6096 51.7262 85.642L73.5854 68.8534C74.1713 68.4043 74.1292 67.5241 73.5037 67.1293Z" fill="#DF5B04"/>
<path d="M73.4818 67.1708L71.3842 65.8066C66.4387 62.5905 60.548 61.3528 54.7979 62.3213C54.5734 62.3592 54.3718 62.489 54.2378 62.6817L41.3245 81.2589C40.3258 82.6961 41.8115 84.5807 43.3506 83.8289L73.3666 69.186C74.1563 68.8007 74.2222 67.6524 73.4818 67.1708Z" fill="#FF6B0A"/>
<path d="M55 59C56.1046 59 57 58.1046 57 57C57 55.8954 56.1046 55 55 55C53.8954 55 53 55.8954 53 57C53 58.1046 53.8954 59 55 59Z" fill="#797979"/>
<path d="M76 61C77.1046 61 78 60.1046 78 59C78 57.8954 77.1046 57 76 57C74.8954 57 74 57.8954 74 59C74 60.1046 74.8954 61 76 61Z" fill="#797979"/>
<path d="M61.0677 31.4706L61.5353 29L91 34.601L88.4655 48L87.43 47.8039L62.8568 44.6966L59 42.3998L60.762 33.0852L60.6173 33.0778L60.6387 31.4681L61.0677 31.4706Z" fill="#0C0632"/>
<path d="M75.7504 35.7917C84.1592 37.3863 91.1044 38.0014 91.2629 37.1657C91.4214 36.33 84.7331 34.3599 76.3243 32.7653C67.9155 31.1707 60.9703 30.5555 60.8119 31.3912C60.6534 32.227 67.3416 34.1971 75.7504 35.7917Z" fill="#0C0632"/>
<path d="M58.641 42C48.58 42.5981 39.0297 56.0283 81 48.9398L58.641 42Z" fill="#0C0632"/>
<path d="M59 41.9339C60.5464 46.6524 85.6223 51.275 89.0111 47.7683L91 36.8602C86.5773 37.4731 78.7097 33.3809 71.9077 34.5768L63.2185 42.5019L61.0352 31L59 41.9339Z" fill="#494600"/>
<path d="M76.1938 33.4221C84.3663 34.9719 91.1199 35.5507 91.2783 34.715C91.4368 33.8793 84.9402 31.9455 76.7677 30.3957C68.5952 28.846 61.8416 28.2671 61.6831 29.1028C61.5247 29.9385 68.0213 31.8724 76.1938 33.4221Z" fill="#0C0632"/>
<path d="M75.97 35.833C84.2575 37.4045 91.1043 38.0011 91.2628 37.1654C91.4213 36.3296 84.8314 34.3782 76.5439 32.8066C68.2564 31.235 61.4096 30.6385 61.2511 31.4742C61.0927 32.3099 67.6825 34.2614 75.97 35.833Z" fill="#0C0632"/>
<path d="M64.475 33C64.5271 33.0558 64.5725 33.0995 64.6082 33.1463C64.916 33.532 65.0386 33.908 64.9488 34.3608C64.9112 34.5524 64.8456 34.7424 64.7935 34.93C64.7471 35.0957 64.7018 35.2582 64.6584 35.4248C64.6478 35.4685 64.6333 35.4838 64.5735 35.4733C64.449 35.4458 64.3264 35.462 64.2357 35.5445C64.1527 35.6164 64.1354 35.7046 64.1682 35.7943C64.201 35.8873 64.284 35.9455 64.3891 35.9803C64.4422 35.9964 64.4847 35.9892 64.531 35.956C64.888 35.7102 65.163 35.4135 65.3695 35.0699C65.5394 34.7844 65.6388 34.478 65.7507 34.178C65.8154 34.0082 65.8887 33.8368 65.9466 33.6646C65.9842 33.5563 66.0315 33.4568 66.1068 33.363C66.183 33.2692 66.2805 33.1924 66.4049 33.1334C66.4638 33.2401 66.4831 33.3533 66.4638 33.4633C66.4435 33.5676 66.4069 33.6727 66.3683 33.7713C66.3268 33.8789 66.2669 33.9808 66.2197 34.0826C66.0913 34.3543 65.9601 34.6244 65.8424 34.8984C65.6503 35.3569 65.6059 35.8258 65.7179 36.3029C65.7314 36.3659 65.7739 36.3959 65.8443 36.4104C66.019 36.4492 66.1936 36.3789 66.2505 36.2455C66.3036 36.1218 66.2197 35.9706 66.0556 35.9148C65.9968 35.8938 66.0006 35.8752 66.0257 35.8355C66.1502 35.6302 66.2718 35.42 66.3914 35.213C66.5323 34.9785 66.6539 34.7392 66.8729 34.5451C67.1624 34.2888 67.4838 34.1554 67.8968 34.077C67.9267 34.0721 67.9566 34.0681 68 34.0608C67.9884 34.0875 67.9807 34.1053 67.973 34.1231C67.4847 35.2647 67.0167 36.3595 66.5294 37.5011C66.5014 37.5666 66.5014 37.5666 66.4271 37.544C66.1473 37.4599 65.8636 37.375 65.5838 37.2909C65.5336 37.2764 65.5075 37.2812 65.4795 37.3192C65.2644 37.6079 64.9623 37.81 64.5706 37.9119C64.4895 37.9345 64.4094 37.9709 64.3293 38C64.2357 37.7987 64.0572 37.6248 64.0003 37.4049C63.953 37.2246 63.9318 37.0411 63.9655 36.8583C63.9713 36.8171 63.9549 36.7985 63.9125 36.7864C63.6259 36.6999 63.3422 36.615 63.0546 36.5285C63.0054 36.5139 62.988 36.4985 63.0083 36.4517C63.4985 35.3035 63.9704 34.1999 64.4606 33.0526C64.4567 33.0445 64.4615 33.0323 64.475 33ZM64.5628 33.6185C64.5542 33.6193 64.5435 33.6161 64.5358 33.6169C64.5262 33.6379 64.5175 33.659 64.5088 33.6792C64.2734 34.2314 64.0562 34.7384 63.8198 35.2906C63.7812 35.382 63.7812 35.382 63.8941 35.4159C63.9375 35.4288 63.9617 35.4264 63.9877 35.3941C64.0775 35.2971 64.1971 35.2405 64.337 35.2227C64.3969 35.2138 64.4152 35.1895 64.4258 35.1459C64.4808 34.9324 64.5339 34.7157 64.5995 34.5055C64.6651 34.2856 64.6767 34.1093 64.6285 33.8854C64.6121 33.7932 64.5841 33.7083 64.5628 33.6185ZM67.4789 34.5039C67.4712 34.5015 67.4693 34.4974 67.4616 34.4958C67.4307 34.5128 67.3998 34.5298 67.3718 34.5484C67.1576 34.6842 66.9849 34.7885 66.8604 34.9874C66.7041 35.2405 66.5555 35.4952 66.403 35.749C66.3808 35.7822 66.3808 35.8089 66.4146 35.8428C66.5072 35.9334 66.5584 36.0385 66.5584 36.1614C66.5574 36.218 66.5921 36.2414 66.6906 36.2544C66.7504 36.2625 66.7446 36.2212 66.7562 36.1945C66.9955 35.6342 67.2165 35.1176 67.4567 34.554C67.4683 34.537 67.476 34.5201 67.4789 34.5039ZM64.2357 36.2075C64.2193 36.1994 64.199 36.1897 64.1769 36.1759C63.9713 36.0684 63.8372 35.9245 63.8478 35.711C63.8488 35.6819 63.8401 35.6658 63.8063 35.6593C63.7822 35.6512 63.7571 35.6439 63.732 35.6366C63.6963 35.6261 63.678 35.6334 63.6645 35.6633C63.5699 35.8841 63.4744 36.1088 63.3837 36.3312C63.3788 36.3425 63.3952 36.3781 63.4097 36.3821C63.5998 36.4428 63.7947 36.501 63.9868 36.5551C64.0012 36.56 64.0389 36.5479 64.0466 36.5365C64.1093 36.429 64.1711 36.3207 64.2357 36.2075ZM65.7526 36.6627C65.716 36.7848 65.686 36.902 65.6513 37.0217C65.6407 37.0548 65.6687 37.0637 65.6976 37.0718C65.8781 37.126 66.0566 37.1761 66.2361 37.2335C66.292 37.2505 66.3181 37.2384 66.3335 37.1931C66.4136 36.9942 66.5024 36.7977 66.5883 36.5972C66.6269 36.505 66.6269 36.505 66.5169 36.4727C66.485 36.463 66.457 36.4541 66.432 36.484C66.294 36.6384 66.1019 36.6869 65.8819 36.678C65.8356 36.674 65.7912 36.6643 65.7526 36.6627ZM65.357 35.6051C65.1601 35.8024 64.9672 35.994 64.7259 36.1549C64.8099 36.2495 64.8871 36.3393 64.9691 36.4274C64.9797 36.4403 65.0173 36.4452 65.0395 36.442C65.1515 36.4217 65.2595 36.3942 65.3715 36.3748C65.4062 36.3684 65.4197 36.3562 65.413 36.3239C65.3589 36.1048 65.3541 35.8832 65.3618 35.6593C65.357 35.6415 65.358 35.6221 65.357 35.6051ZM64.2859 36.9044C64.2058 37.054 64.2695 37.4195 64.3699 37.4922C64.3747 37.4906 64.3795 37.489 64.3795 37.489C64.4451 37.3354 64.5146 37.1834 64.5754 37.0314C64.5802 37.0201 64.5628 36.9942 64.5503 36.9877C64.4644 36.9546 64.3737 36.9311 64.2859 36.9044ZM64.6651 37.5876C64.8494 37.5602 65.1611 37.2974 65.1872 37.1721C65.109 37.1486 65.0241 37.1227 64.9459 37.0993C64.8996 37.0855 64.8793 37.0961 64.8639 37.1316C64.8108 37.2553 64.7587 37.379 64.7057 37.5036C64.6902 37.5286 64.6786 37.5553 64.6651 37.5876ZM64.5088 36.7088C64.5551 36.7225 64.6034 36.7403 64.6526 36.7484C64.6661 36.7524 64.7047 36.7379 64.7047 36.7274C64.7394 36.5915 64.6883 36.4492 64.5522 36.3757C64.5223 36.3595 64.5021 36.3603 64.4837 36.3845C64.4355 36.4605 64.3911 36.5365 64.3409 36.615C64.3255 36.6433 64.3419 36.6619 64.3737 36.6716C64.4171 36.6813 64.4635 36.695 64.5088 36.7088ZM65.1611 36.9044C65.2036 36.9174 65.2431 36.9287 65.2856 36.9416C65.3261 36.957 65.358 36.9497 65.3666 36.9093C65.3879 36.8325 65.4091 36.7557 65.4265 36.6772C65.4342 36.64 65.4168 36.6247 65.3686 36.6239C65.2209 36.6158 65.0482 36.7007 64.9951 36.8147C64.9903 36.8268 65.0067 36.8543 65.0193 36.8616C65.0675 36.8794 65.1148 36.8907 65.1611 36.9044Z" fill="#FFD500"/>
<path d="M77.4238 75.0654C80.6611 77.8188 85.7218 77.1862 88.7271 73.6526C91.7325 70.119 91.5444 65.0224 88.307 62.269C85.0697 59.5157 80.009 60.1482 77.0037 63.6818C73.9983 67.2155 74.1864 72.3121 77.4238 75.0654Z" fill="url(#paint4_radial_143_37)"/>
<path d="M170.317 116.872C181.997 103.183 176.264 79.1157 157.512 63.1159C138.76 47.1161 114.09 45.2429 102.41 58.932C90.7299 72.6211 96.4632 96.6886 115.215 112.688C133.967 128.688 158.637 130.561 170.317 116.872Z" fill="#C4C4C4"/>
<path d="M172.925 113.817C183.165 101.815 176.264 79.1158 157.512 63.116C138.76 47.1162 115.257 43.8749 105.017 55.8763C94.7773 67.8777 101.678 90.5771 120.43 106.577C139.182 122.577 162.685 125.818 172.925 113.817Z" fill="white"/>
<path d="M128 85.9675L155 64L139.508 93.8751C131.364 94.93 128.443 89.0428 128 85.9675Z" fill="#C4C4C4"/>
<path d="M163.559 70.3386C166.274 67.1562 164.941 61.5609 160.582 57.8413C156.222 54.1216 150.487 53.6861 147.772 56.8686C145.056 60.051 146.389 65.6463 150.749 69.3659C155.108 73.0855 160.844 73.521 163.559 70.3386Z" fill="#C4C4C4"/>
<path d="M164.165 69.6285C166.546 66.8384 164.941 61.5612 160.582 57.8416C156.222 54.122 150.758 53.3684 148.378 56.1585C145.997 58.9486 147.601 64.2258 151.961 67.9454C156.321 71.665 161.784 72.4186 164.165 69.6285Z" fill="white"/>
<path d="M154 62.59L162 56L157.41 64.9626C154.997 65.2789 154.131 63.5132 154 62.59Z" fill="#C4C4C4"/>
<path d="M138.558 105.419C86.041 122.405 96.9092 139.55 108.908 145.999C112.368 151.62 123.245 144.077 128.251 139.603C128.342 136.906 130.077 130.529 136.279 126.6C142.483 122.671 140.694 121.033 139.025 120.706C147.713 113.41 142.945 113.894 139.475 115.048C167.288 99.9538 148.349 102.045 138.558 105.419Z" fill="#D9D9D9"/>
<path d="M140.584 105.852C87.6268 123.936 99.017 140.869 111.332 147.075C114.962 152.629 125.846 144.855 130.834 140.274C130.871 137.574 132.498 131.157 138.713 127.096C144.927 123.036 143.078 121.434 141.377 121.141C150.044 113.66 145.213 114.243 141.715 115.47C164.494 99.1876 150.452 102.274 140.584 105.852Z" fill="#F8F8F8"/>
<defs>
<linearGradient id="paint0_linear_143_37" x1="4.66082" y1="45.7789" x2="188.567" y2="152.158" gradientUnits="userSpaceOnUse">
<stop stop-color="#FEF0AE"/>
<stop offset="1" stop-color="#FEF0AE"/>
</linearGradient>
<linearGradient id="paint1_linear_143_37" x1="85.8212" y1="156.851" x2="182.296" y2="142.261" gradientUnits="userSpaceOnUse">
<stop stop-color="#F2F2F2"/>
<stop offset="1" stop-color="white"/>
</linearGradient>
<linearGradient id="paint2_linear_143_37" x1="74" y1="53" x2="74" y2="163" gradientUnits="userSpaceOnUse">
<stop stop-color="white"/>
<stop offset="1" stop-color="#F2F2F2"/>
</linearGradient>
<radialGradient id="paint3_radial_143_37" cx="0" cy="0" r="1" gradientUnits="userSpaceOnUse" gradientTransform="translate(104.041 186.3) rotate(0.517693) scale(24.1159 8.33475)">
<stop stop-color="#D7D7D7"/>
<stop offset="1" stop-color="#D7D7D7" stop-opacity="0"/>
</radialGradient>
<radialGradient id="paint4_radial_143_37" cx="0" cy="0" r="1" gradientUnits="userSpaceOnUse" gradientTransform="translate(82.8654 68.6672) rotate(130.381) scale(8.39932 7.69506)">
<stop stop-color="#FFBBBB"/>
<stop offset="1" stop-color="#FFBBBB" stop-opacity="0"/>
</radialGradient>
</defs>
</svg>
